<?xml version="1.0" standalone="no"?><!DOCTYPE svg PUBLIC "-//W3C//DTD SVG 1.1//EN" "http://www.w3.org/Graphics/SVG/1.1/DTD/svg11.dtd"><svg t="1599601947894" class="icon" viewBox="0 0 1024 1024" version="1.1" xmlns="http://www.w3.org/2000/svg" p-id="2222" xmlns:xlink="http://www.w3.org/1999/xlink" width="128" height="128"><defs><style type="text/css"></style></defs><path d="M701.416881 34.079174c10.865861-6.683144 24.995315-2.325294 30.956199 9.544061l211.383177 390.430832c6.263849 11.014148 2.454406 26.625194-8.415289 33.01432l-1.101927 0.588035q-182.317639 112.078158-364.686411 225.062657a22.754391 22.754391 0 0 1-31.481595-9.008437L326.963978 293.27981c-5.960883-11.84251-2.70496-26.653317 8.139169-32.988754L701.416881 34.079174z m3.28149 54.457138l-86.583014 53.545684 56.728742 104.28414c5.960883 11.014148 2.428839 26.652039-8.692689 33.01432l-114.505719 70.67795c-10.845407 6.950316-24.971026 2.619312-31.206752-9.27561l-56.703175-104.257295-85.754652 53.306635 188.315594 348.432362 86.306894-53.01006-56.452621-104.285419c-6.511846-11.868077-2.70496-26.625194 8.415289-33.01432l114.783119-70.681785c10.318733-6.923471 24.94546-3.153656 30.935744 8.394836l56.41555 104.28414 85.762322-52.71093L704.698371 88.533755z m-167.704974 626.742851a125.822833 125.822833 0 0 1 51.569376 11.040993l363.612609-223.910876c17.906939-11.28132 41.249364-4.651867 52.093493 15.049856 10.04389 19.729847 4.05744 44.323764-14.374895 55.607641L648.796713 783.342915a147.59674 147.59674 0 0 1 18.457902 70.975803 140.912318 140.912318 0 0 1-38.544404 97.600996c-23.59298 25.769987-56.152212 41.140706-91.716814 41.140706a122.913339 122.913339 0 0 1-92.266498-41.140706l-2.428839-2.00571a146.49737 146.49737 0 0 1 2.428839-194.05149l3.255923-3.768536-302.821313-559.890962h-92.244767c-21.188429 0-38.019008-18.819671-38.019008-41.115139 0-22.321035 16.830579-40.552671 38.019008-40.552671h114.506998c14.626727 0 28.201383 9.544061 34.162266 23.471538l315.876965 582.154471c5.959605-0.588035 12.497018-0.882052 19.534261-0.882052z m37.99472 98.189032c-10.04389-10.132096-23.342426-16.788394-37.99472-16.788395a51.417253 51.417253 0 0 0-37.988327 16.790951 59.036139 59.036139 0 0 0-1.603034 79.663378l1.603034 1.416397a50.315327 50.315327 0 0 0 37.993441 16.842084c14.652294 0 27.950829-6.391683 37.994719-16.842084v0.320863c9.491649-10.157662 15.17769-24.620762 15.17769-40.552671a61.224651 61.224651 0 0 0-15.17769-40.847967z m3.529487-647.329183l-75.185365 46.326917 45.607214 82.845157 74.63568-46.034178-45.057529-83.137896z m143.557196 264.999169l-74.910523 46.355041 45.031963 83.139175 74.63568-46.649058-44.75712-82.843879z" p-id="2223"></path></svg>